name Run_200 02_newCOP3_v24.mot
datacolumns 19
datarows 119
range 2.725 2.847917
DataType=double
version=3
OpenSimVersion=4.3-2021-08-27-4bc7ad9
endheader
time	R_ground_force_vx	R_ground_force_vy	R_ground_force_vz	R_ground_force_px	R_ground_force_py	R_ground_force_pz	L_ground_force_vx	L_ground_force_vy	L_ground_force_vz	L_ground_force_px	L_ground_force_py	L_ground_force_pz	R_ground_torque_x	R_ground_torque_y	R_ground_torque_z	L_ground_torque_x	L_ground_torque_y	L_ground_torque_z
2.725	0	0	0	0	0	0	0	0	0	0	0	0	0	0	0	0	0	0
2.726042	0	0	0	0	0	0	0	0	0	0	0	0	0	0	0	0	0	0
2.727083	0	0	0	0	0	0	0	0	0	0	0	0	0	0	0	0	0	0
2.728125	0	0	0	0	0	0	0	0	0	0	0	0	0	0	0	0	0	0
2.729167	0	0	0	0	0	0	0	0	0	0	0	0	0	0	0	0	0	0
2.730208	0	0	0	0	0	0	0	0	0	0	0	0	0	0	0	0	0	0
2.73125	0	0	0	0	0	0	0	0	0	0	0	0	0	0	0	0	0	0
2.732292	0	0	0	0	0	0	0	0	0	0	0	0	0	0	0	0	0	0
2.733333	0	0	0	0	0	0	0	0	0	0	0	0	0	0	0	0	0	0
2.734375	0	0	0	0	0	0	0	0	0	0	0	0	0	0	0	0	0	0
2.735417	0	0	0	0	0	0	0	0	0	0	0	0	0	0	0	0	0	0
2.736458	0	0	0	0	0	0	0	0	0	0	0	0	0	0	0	0	0	0
2.7375	0	0	0	0	0	0	0	0	0	0	0	0	0	0	0	0	0	0
2.738542	0	0	0	0	0	0	0	0	0	0	0	0	0	0	0	0	0	0
2.739583	0	0	0	0	0	0	0	0	0	0	0	0	0	0	0	0	0	0
2.740625	0	0	0	0	0	0	0	0	0	0	0	0	0	0	0	0	0	0
2.741667	0	0	0	0	0	0	0	0	0	0	0	0	0	0	0	0	0	0
2.742708	0	0	0	0	0	0	0	0	0	0	0	0	0	0	0	0	0	0
2.74375	0	0	0	0	0	0	0	0	0	0	0	0	0	0	0	0	0	0
2.744792	0	0	0	0	0	0	0	0	0	0	0	0	0	0	0	0	0	0
2.745833	0	0	0	0	0	0	0	0	0	0	0	0	0	0	0	0	0	0
2.746875	0	0	0	0	0	0	0	0	0	0	0	0	0	0	0	0	0	0
2.747917	0	0	0	0	0	0	0	0	0	0	0	0	0	0	0	0	0	0
2.748958	0	0	0	0	0	0	0	0	0	0	0	0	0	0	0	0	0	0
2.75	0	0	0	0	0	0	0	0	0	0	0	0	0	0	0	0	0	0
2.751042	0	0	0	0	0	0	0	0	0	0	0	0	0	0	0	0	0	0
2.752083	0	0	0	0	0	0	0	0	0	0	0	0	0	0	0	0	0	0
2.753125	0	0	0	0	0	0	0	0	0	0	0	0	0	0	0	0	0	0
2.754167	0	0	0	0	0	0	-2.307872	10.004805	-0.43093	0	0	0	0	0	0	0	0	0
2.755208	0	0	0	0	0	0	-2.450343	11.183489	-0.583514	0	0	0	0	0	0	0	0	0
2.75625	0	0	0	0	0	0	-2.603137	12.564797	-0.738631	0	0	0	0	0	0	0	0	0
2.757292	0	0	0	0	0	0	-2.765654	14.172191	-0.8962020000000001	0	0	0	0	0	0	0	0	0
2.758333	0	0	0	0	0	0	-2.936539	16.030697	-1.056241	0.958452	0	-0.238805	0	0	0	0	-0.630656	0
2.759375	0	0	0	0	0	0	-3.113594	18.166904	-1.218833	0.958074	0	-0.245868	0	0	0	0	-0.484342	0
2.760417	0	0	0	0	0	0	-3.293724	20.608944	-1.384124	0.958031	0	-0.251955	0	0	0	0	-0.334654	0
2.761458	0	0	0	0	0	0	-3.472919	23.386469	-1.552293	0.958226	0	-0.257211	0	0	0	0	-0.182334	0
2.7625	0	0	0	0	0	0	-3.64627	26.530617	-1.723533	0.958573	0	-0.261765	0	0	0	0	-0.028276	0
2.763542	0	0	0	0	0	0	-3.808036	30.073978	-1.898029	0.958998	0	-0.265734	0	0	0	-0	0.126458	-0
2.764583	0	0	0	0	0	0	-3.951758	34.050537	-2.075927	0.959438	0	-0.269214	0	0	0	-0	0.280617	-0
2.765625	0	0	0	0	0	0	-4.07042	38.495613	-2.257312	0.9598449999999999	0	-0.272289	0	0	0	-0	0.432753	-0
2.766667	0	0	0	0	0	0	-4.156669	43.445808	-2.442184	0.960182	0	-0.275024	0	0	0	-0	0.58121	-0
2.767708	0	0	0	0	0	0	-4.203076	48.938915	-2.630436	0.960422	0	-0.277474	0	0	0	-0	0.724121	-0
2.76875	0	0	0	0	0	0	-4.202443	55.013836	-2.821835	0.960549	0	-0.27968	0	0	0	-0	0.859417	-0
2.769792	0	0	0	0	0	0	-4.148144	61.710491	-3.016005	0.960554	0	-0.281675	0	0	0	-0	0.984832	-0
2.770833	0	0	0	0	0	0	-4.034488	69.06967899999999	-3.21242	0.960434	0	-0.283487	0	0	0	-0	1.097927	-0
2.771875	0	0	0	0	0	0	-3.857089	77.132927	-3.410394	0.960193	0	-0.285135	0	0	0	-0	1.196116	-0
2.772917	0	0	0	0	0	0	-3.613218	85.94229900000001	-3.609086	0.959838	0	-0.286634	0	0	0	-0	1.276699	-0
2.773958	0	0	0	0	0	0	-3.30214	95.540115	-3.807504	0.959381	0	-0.287997	0	0	0	-0	1.336907	-0
2.775	0	0	0	0	0	0	-2.925387	105.968666	-4.004517	0.958835	0	-0.289234	0	0	0	-0	1.37395	-0
2.776042	0	0	0	0	0	0	-2.486974	117.269745	-4.198878	0.958215	0	-0.290351	0	0	0	-0	1.385076	-0
2.777083	0	0	0	0	0	0	-1.993535	129.484192	-4.389247	0.957537	0	-0.291357	0	0	0	-0	1.367629	-0
2.778125	0	0	0	0	0	0	-1.45436	142.65123	-4.574226	0.95682	0	-0.292255	0	0	0	-0	1.319124	-0
2.779167	0	0	0	0	0	0	-0.88134	156.807739	-4.752394	0.956077	0	-0.293053	0	0	0	-0	1.237313	-0
2.780208	0	0	0	0	0	0	-0.288803	171.987411	-4.922352	0.955326	0	-0.293753	0	0	0	-0	1.12026	-0
2.78125	0	0	0	0	0	0	0.306735	188.219772	-5.082772	0.954579	0	-0.294362	0	0	0	-0	0.966417	-0
2.782292	0	0	0	0	0	0	0.886918	205.529114	-5.232444	0.9538489999999999	0	-0.294883	0	0	0	-0	0.774693	-0
2.783333	0	0	0	0	0	0	1.431964	223.93338	-5.370335	0.953148	0	-0.295321	0	0	0	-0	0.544531	-0
2.784375	0	0	0	0	0	0	1.921135	243.442902	-5.49564	0.9524820000000001	0	-0.295681	0	0	0	-0	0.275967	-0
2.785417	0	0	0	0	0	0	2.333246	264.059296	-5.607838	0.951859	0	-0.295967	0	0	0	0	-0.030307	0
2.786458	0	0	0	0	0	0	2.647171	285.77417	-5.706746	0.951283	0	-0.296185	0	0	0	0	-0.372894	0
2.7875	0	0	0	0	0	0	2.84235	308.568115	-5.792567	0.950757	0	-0.296339	0	0	0	0	-0.749653	0
2.788542	0	0	0	0	0	0	2.899245	332.40976	-5.865938	0.950283	0	-0.296435	0	0	0	0	-1.157674	0
2.789583	0	0	0	0	0	0	2.799741	357.254852	-5.92797	0.949861	0	-0.296476	0	0	0	0	-1.593257	0
2.790625	0	0	0	0	0	0	2.527469	383.045837	-5.980278	0.949489	0	-0.296467	0	0	0	0	-2.051923	0
2.791667	0	0	0	0	0	0	2.068048	409.71167	-6.025002	0.949165	0	-0.296415	0	0	0	0	-2.528426	0
2.792708	0	0	0	0	0	0	1.409215	437.167694	-6.064822	0.948888	0	-0.296322	0	0	0	0	-3.01679	0
2.79375	0	0	0	0	0	0	0.5408849999999999	465.316254	-6.102956	0.948654	0	-0.296193	0	0	0	0	-3.510361	0
2.794792	0	0	0	0	0	0	-0.54489	494.047546	-6.143146	0.94846	0	-0.296033	0	0	0	0	-4.001879	0
2.795833	0	0	0	0	0	0	-1.854021	523.240723	-6.189628	0.948302	0	-0.295846	0	0	0	0	-4.483563	0
2.796875	0	0	0	0	0	0	-3.390525	552.765503	-6.247088	0.948176	0	-0.295635	0	0	0	0	-4.947218	0
2.797917	0	0	0	0	0	0	-5.156698	582.484375	-6.320607	0.948079	0	-0.295406	0	0	0	0	-5.384355	0
2.798958	0	0	0	0	0	0	-7.153278	612.254395	-6.415578	0.948006	0	-0.295161	0	0	0	0	-5.786321	0
2.8	0	0	0	0	0	0	-9.379580000000001	641.929932	-6.537624	0.947955	0	-0.294903	0	0	0	0	-6.144452	0
2.801042	0	0	0	0	0	0	-11.83358	671.365356	-6.692485	0.947921	0	-0.294637	0	0	0	0	-6.45022	0
2.802083	0	0	0	0	0	0	-14.511948	700.417297	-6.885907	0.947901	0	-0.294366	0	0	0	0	-6.695404	0
2.803125	0	0	0	0	0	0	-17.409996	728.947937	-7.123503	0.947892	0	-0.294092	0	0	0	0	-6.872251	0
2.804167	0	0	0	0	0	0	-20.52158	756.827087	-7.410621	0.947889	0	-0.293819	0	0	0	0	-6.973646	0
2.805208	0	0	0	0	0	0	-23.838934	783.934692	-7.752193	0.947891	0	-0.293549	0	0	0	0	-6.993274	0
2.80625	0	0	0	0	0	0	-27.352489	810.1632080000001	-8.152587	0.947892	0	-0.293285	0	0	0	0	-6.925782	0
2.807292	0	0	0	0	0	0	-31.050674	835.419189	-8.615451999999999	0.947891	0	-0.293031	0	0	0	0	-6.766923	0
2.808333	0	0	0	0	0	0	-34.919746	859.624939	-9.143572000000001	0.9478839999999999	0	-0.292788	0	0	0	0	-6.513694	0
2.809375	0	0	0	0	0	0	-38.943684	882.719727	-9.738727000000001	0.947867	0	-0.292558	0	0	0	0	-6.164449	0
2.810417	0	0	0	0	0	0	-43.104141	904.6602779999999	-10.401559	0.947838	0	-0.292345	0	0	0	0	-5.718998	0
2.811458	0	0	0	0	0	0	-47.380535	925.421387	-11.131458	0.947793	0	-0.29215	0	0	0	0	-5.178681	0
2.8125	0	0	0	0	0	0	-51.750221	944.995728	-11.92647	0.94773	0	-0.291975	0	0	0	0	-4.546411	0
2.813542	0	0	0	0	0	0	-56.188828	963.393372	-12.783215	0.947643	0	-0.291822	0	0	0	0	-3.826695	0
2.814583	0	0	0	0	0	0	-60.670666	980.6410519999999	-13.696843	0.947532	0	-0.291693	0	0	0	0	-3.025623	0
2.815625	0	0	0	0	0	0	-65.169273	996.781067	-14.661021	0.947391	0	-0.291588	0	0	0	0	-2.150821	0
2.816667	0	0	0	0	0	0	-69.65804300000001	1011.869629	-15.667933	0.947218	0	-0.291508	0	0	0	0	-1.211384	0
2.817708	0	0	0	0	0	0	-74.11082500000001	1025.975464	-16.708338	0.947011	0	-0.291454	0	0	0	0	-0.217762	0
2.81875	0	0	0	0	0	0	-78.50264	1039.177612	-17.771633	0.946766	0	-0.291426	0	0	0	-0	0.818368	-0
2.819792	0	0	0	0	0	0	-82.810265	1051.563965	-18.845982	0.94648	0	-0.291424	0	0	0	-0	1.884272	-0
2.820833	0	0	0	0	0	0	-87.01282500000001	1063.228271	-19.918451	0.946153	0	-0.291446	0	0	0	-0	2.966344	-0
2.821875	0	0	0	0	0	0	-91.092178	1074.268677	-20.975183	0.945782	0	-0.291491	0	0	0	-0	4.050323	-0
2.822917	0	0	0	0	0	0	-95.033287	1084.785522	-22.001616	0.945366	0	-0.291558	0	0	0	-0	5.121523	-0
2.823958	0	0	0	0	0	0	-98.824341	1094.87915	-22.982693	0.944905	0	-0.291645	0	0	0	-0	6.165082	-0
2.825	0	0	0	0	0	0	-102.456764	1104.648071	-23.903137	0.944399	0	-0.291748	0	0	0	-0	7.166216	-0
2.826042	0	0	0	0	0	0	-105.925026	1114.187256	-24.747704	0.943849	0	-0.291866	0	0	0	-0	8.110488999999999	-0
2.827083	0	0	0	0	0	0	-109.226402	1123.586792	-25.501461	0.943256	0	-0.291995	0	0	0	-0	8.984069	-0
2.828125	0	0	0	0	0	0	-112.360481	1132.930176	-26.150078	0.942623	0	-0.292132	0	0	0	-0	9.773986000000001	-0
2.829167	0	0	0	0	0	0	-115.328712	1142.293579	-26.680099	0.941951	0	-0.292274	0	0	0	-0	10.468382	-0
2.830208	0	0	0	0	0	0	-118.133827	1151.744995	-27.07922	0.9412430000000001	0	-0.292417	0	0	0	-0	11.056735	-0
2.83125	0	0	0	0	0	0	-120.779312	1161.343506	-27.336544	0.940504	0	-0.292558	0	0	0	-0	11.530069	-0
2.832292	0	0	0	0	0	0	-123.26886	1171.138794	-27.442808	0.939735	0	-0.292695	0	0	0	-0	11.881136	-0
2.833333	0	0	0	0	0	0	-125.605896	1181.171143	-27.390602	0.938939	0	-0.292825	0	0	0	-0	12.104559	-0
2.834375	0	0	0	0	0	0	-127.793236	1191.471069	-27.174528	0.93812	0	-0.292945	0	0	0	-0	12.196954	-0
2.835417	0	0	0	0	0	0	-129.832779	1202.059326	-26.791344	0.93728	0	-0.293053	0	0	0	-0	12.157001	-0
2.836458	0	0	0	0	0	0	-131.725418	1212.94751	-26.240042	0.9364209999999999	0	-0.29315	0	0	0	-0	11.985484	-0
2.8375	0	0	0	0	0	0	-133.470901	1224.138062	-25.521912	0.935543	0	-0.293233	0	0	0	-0	11.685284	-0
2.838542	0	0	0	0	0	0	-135.068008	1235.624512	-24.640514	0.934649	0	-0.293302	0	0	0	-0	11.261333	-0
2.839583	0	0	0	0	0	0	-136.514664	1247.392334	-23.601654	0.933737	0	-0.293359	0	0	0	-0	10.720526	-0
2.840625	0	0	0	0	0	0	-137.808197	1259.419312	-22.413258	0.932809	0	-0.293403	0	0	0	-0	10.071589	-0
2.841667	0	0	0	0	0	0	-138.945587	1271.67627	-21.085241	0.931863	0	-0.293437	0	0	0	-0	9.324919	-0
2.842708	0	0	0	0	0	0	-139.923828	1284.128296	-19.629314	0.930899	0	-0.293462	0	0	0	-0	8.492378	-0
2.84375	0	0	0	0	0	0	-140.740128	1296.734863	-18.058754	0.929916	0	-0.293479	0	0	0	-0	7.587067	-0
2.844792	0	0	0	0	0	0	-141.392288	1309.451172	-16.388136	0.928913	0	-0.293493	0	0	0	-0	6.623064	-0
2.845833	0	0	0	0	0	0	-141.878815	1322.229492	-14.633039	0.927889	0	-0.293504	0	0	0	-0	5.615156	-0
2.846875	0	0	0	0	0	0	-142.199158	1335.019653	-12.809742	0.926843	0	-0.293517	0	0	0	-0	4.578541	-0
2.847917	0	0	0	0	0	0	-142.353745	1347.77063	-10.934883	0.925775	0	-0.293533	0	0	0	-0	3.528538	-0
